# xmcd CD database file
#
# Track frame offsets:
#	150
#	20475
#	45889
#	87300
#	102785
#	124337
#	152205
#	184565
#	213380
#
# Disc length: 2874 seconds
#
# Revision: 0
# Processed by: cddbd v1.5.1PL0 Copyright (c) Steve Scherf et al.
# Submitted via: CDex 1.51
#
DISCID=6c0b3809
DTITLE=Dalia Faitelson - GLOBAL SOUND diamond of the day
DYEAR=1900
DGENRE=Jazz
TTITLE0=diamond of the day
TTITLE1=advancing hours
TTITLE2=moodwalk
TTITLE3=exposure
TTITLE4=facing south
TTITLE5=loud tree
TTITLE6=fistfull of flowers
TTITLE7=ever everland
TTITLE8=lullaby for elisheva
EXTD=
EXTT0=
EXTT1=
EXTT2=
EXTT3=
EXTT4=
EXTT5=
EXTT6=
EXTT7=
EXTT8=
PLAYORDER=
